<svg viewBox="0 0 1474 400" xmlns="http://www.w3.org/2000/svg"><g><g><g><g><g><line x1="48.875" y1="377.828125" x2="43.875" y2="377.828125" style="visibility: inherit;" fill="rgb(0, 0, 0)" stroke="rgb(204, 204, 204)" stroke-width="1px"></line><line x1="48.875" y1="346.3424479166667" x2="43.875" y2="346.3424479166667" style="visibility: inherit;" fill="rgb(0, 0, 0)" stroke="rgb(204, 204, 204)" stroke-width="1px"></line><line x1="48.875" y1="314.8567708333333" x2="43.875" y2="314.8567708333333" style="visibility: inherit;" fill="rgb(0, 0, 0)" stroke="rgb(204, 204, 204)" stroke-width="1px"></line><line x1="48.875" y1="283.37109375" x2="43.875" y2="283.37109375" style="visibility: inherit;" fill="rgb(0, 0, 0)" stroke="rgb(204, 204, 204)" stroke-width="1px"></line><line x1="48.875" y1="251.88541666666669" x2="43.875" y2="251.88541666666669" style="visibility: inherit;" fill="rgb(0, 0, 0)" stroke="rgb(204, 204, 204)" stroke-width="1px"></line><line x1="48.875" y1="220.39973958333331" x2="43.875" y2="220.39973958333331" style="visibility: inherit;" fill="rgb(0, 0, 0)" stroke="rgb(204, 204, 204)" stroke-width="1px"></line><line x1="48.875" y1="188.9140625" x2="43.875" y2="188.9140625" style="visibility: inherit;" fill="rgb(0, 0, 0)" stroke="rgb(204, 204, 204)" stroke-width="1px"></line><line x1="48.875" y1="157.42838541666666" x2="43.875" y2="157.42838541666666" style="visibility: inherit;" fill="rgb(0, 0, 0)" stroke="rgb(204, 204, 204)" stroke-width="1px"></line><line x1="48.875" y1="125.94270833333334" x2="43.875" y2="125.94270833333334" style="visibility: inherit;" fill="rgb(0, 0, 0)" stroke="rgb(204, 204, 204)" stroke-width="1px"></line><line x1="48.875" y1="94.45703125" x2="43.875" y2="94.45703125" style="visibility: inherit;" fill="rgb(0, 0, 0)" stroke="rgb(204, 204, 204)" stroke-width="1px"></line><line x1="48.875" y1="62.97135416666663" x2="43.875" y2="62.97135416666663" style="visibility: inherit;" fill="rgb(0, 0, 0)" stroke="rgb(204, 204, 204)" stroke-width="1px"></line><line x1="48.875" y1="31.48567708333337" x2="43.875" y2="31.48567708333337" style="visibility: inherit;" fill="rgb(0, 0, 0)" stroke="rgb(204, 204, 204)" stroke-width="1px"></line><line x1="48.875" y1="0" x2="43.875" y2="0" style="visibility: inherit;" fill="rgb(0, 0, 0)" stroke="rgb(204, 204, 204)" stroke-width="1px"></line></g><g transform="translate(38.875, 0)"><text x="0" y="377.828125" dx="0em" dy="0.3em" style="text-anchor: end; visibility: hidden; font-family: &quot;Helvetica Neue&quot;, sans-serif; font-size: 12px; font-weight: 200;" fill="rgb(50, 49, 63)" stroke="none" stroke-width="1px">-0.5</text><text x="0" y="346.3424479166667" dx="0em" dy="0.3em" style="text-anchor: end; visibility: inherit; font-family: &quot;Helvetica Neue&quot;, sans-serif; font-size: 12px; font-weight: 200;" fill="rgb(50, 49, 63)" stroke="none" stroke-width="1px">0</text><text x="0" y="314.8567708333333" dx="0em" dy="0.3em" style="text-anchor: end; visibility: inherit; font-family: &quot;Helvetica Neue&quot;, sans-serif; font-size: 12px; font-weight: 200;" fill="rgb(50, 49, 63)" stroke="none" stroke-width="1px">0.5</text><text x="0" y="283.37109375" dx="0em" dy="0.3em" style="text-anchor: end; visibility: inherit; font-family: &quot;Helvetica Neue&quot;, sans-serif; font-size: 12px; font-weight: 200;" fill="rgb(50, 49, 63)" stroke="none" stroke-width="1px">1</text><text x="0" y="251.88541666666669" dx="0em" dy="0.3em" style="text-anchor: end; visibility: inherit; font-family: &quot;Helvetica Neue&quot;, sans-serif; font-size: 12px; font-weight: 200;" fill="rgb(50, 49, 63)" stroke="none" stroke-width="1px">1.5</text><text x="0" y="220.39973958333331" dx="0em" dy="0.3em" style="text-anchor: end; visibility: inherit; font-family: &quot;Helvetica Neue&quot;, sans-serif; font-size: 12px; font-weight: 200;" fill="rgb(50, 49, 63)" stroke="none" stroke-width="1px">2</text><text x="0" y="188.9140625" dx="0em" dy="0.3em" style="text-anchor: end; visibility: inherit; font-family: &quot;Helvetica Neue&quot;, sans-serif; font-size: 12px; font-weight: 200;" fill="rgb(50, 49, 63)" stroke="none" stroke-width="1px">2.5</text><text x="0" y="157.42838541666666" dx="0em" dy="0.3em" style="text-anchor: end; visibility: inherit; font-family: &quot;Helvetica Neue&quot;, sans-serif; font-size: 12px; font-weight: 200;" fill="rgb(50, 49, 63)" stroke="none" stroke-width="1px">3</text><text x="0" y="125.94270833333334" dx="0em" dy="0.3em" style="text-anchor: end; visibility: inherit; font-family: &quot;Helvetica Neue&quot;, sans-serif; font-size: 12px; font-weight: 200;" fill="rgb(50, 49, 63)" stroke="none" stroke-width="1px">3.5</text><text x="0" y="94.45703125" dx="0em" dy="0.3em" style="text-anchor: end; visibility: inherit; font-family: &quot;Helvetica Neue&quot;, sans-serif; font-size: 12px; font-weight: 200;" fill="rgb(50, 49, 63)" stroke="none" stroke-width="1px">4</text><text x="0" y="62.97135416666663" dx="0em" dy="0.3em" style="text-anchor: end; visibility: inherit; font-family: &quot;Helvetica Neue&quot;, sans-serif; font-size: 12px; font-weight: 200;" fill="rgb(50, 49, 63)" stroke="none" stroke-width="1px">4.5</text><text x="0" y="31.48567708333337" dx="0em" dy="0.3em" style="text-anchor: end; visibility: inherit; font-family: &quot;Helvetica Neue&quot;, sans-serif; font-size: 12px; font-weight: 200;" fill="rgb(50, 49, 63)" stroke="none" stroke-width="1px">5</text><text x="0" y="0" dx="0em" dy="0.3em" style="text-anchor: end; visibility: hidden; font-family: &quot;Helvetica Neue&quot;, sans-serif; font-size: 12px; font-weight: 200;" fill="rgb(50, 49, 63)" stroke="none" stroke-width="1px">5.5</text></g><line x1="48.875" y1="0" x2="48.875" y2="377.828125" fill="rgb(0, 0, 0)" stroke="rgb(204, 204, 204)" stroke-width="1px"></line></g></g><g transform="translate(48, 0)" clip-path="url(#clip_0)"><clipPath id="clip_0"><rect width="1425" height="377"></rect></clipPath><g><g><g><line x1="0" y1="0" x2="0" y2="377.828125" fill="rgb(0, 0, 0)" stroke="rgb(60, 60, 60)" stroke-width="1px" opacity="0.25"></line><line x1="158.3472222222222" y1="0" x2="158.3472222222222" y2="377.828125" fill="rgb(0, 0, 0)" stroke="rgb(60, 60, 60)" stroke-width="1px" opacity="0.25"></line><line x1="316.6944444444444" y1="0" x2="316.6944444444444" y2="377.828125" fill="rgb(0, 0, 0)" stroke="rgb(60, 60, 60)" stroke-width="1px" opacity="0.25"></line><line x1="475.04166666666663" y1="0" x2="475.04166666666663" y2="377.828125" fill="rgb(0, 0, 0)" stroke="rgb(60, 60, 60)" stroke-width="1px" opacity="0.25"></line><line x1="633.3888888888888" y1="0" x2="633.3888888888888" y2="377.828125" fill="rgb(0, 0, 0)" stroke="rgb(60, 60, 60)" stroke-width="1px" opacity="0.25"></line><line x1="791.7361111111112" y1="0" x2="791.7361111111112" y2="377.828125" fill="rgb(0, 0, 0)" stroke="rgb(60, 60, 60)" stroke-width="1px" opacity="0.25"></line><line x1="950.0833333333333" y1="0" x2="950.0833333333333" y2="377.828125" fill="rgb(0, 0, 0)" stroke="rgb(60, 60, 60)" stroke-width="1px" opacity="0.25"></line><line x1="1108.4305555555557" y1="0" x2="1108.4305555555557" y2="377.828125" fill="rgb(0, 0, 0)" stroke="rgb(60, 60, 60)" stroke-width="1px" opacity="0.25"></line><line x1="1266.7777777777776" y1="0" x2="1266.7777777777776" y2="377.828125" fill="rgb(0, 0, 0)" stroke="rgb(60, 60, 60)" stroke-width="1px" opacity="0.25"></line><line x1="1425.125" y1="0" x2="1425.125" y2="377.828125" fill="rgb(0, 0, 0)" stroke="rgb(60, 60, 60)" stroke-width="1px" opacity="0.25"></line></g><g><line x1="0" y1="377.828125" x2="1425.125" y2="377.828125" fill="rgb(0, 0, 0)" stroke="rgb(60, 60, 60)" stroke-width="1px" opacity="0.25"></line><line x1="0" y1="346.3424479166667" x2="1425.125" y2="346.3424479166667" fill="rgb(0, 0, 0)" stroke="rgb(60, 60, 60)" stroke-width="1px" opacity="0.25"></line><line x1="0" y1="314.8567708333333" x2="1425.125" y2="314.8567708333333" fill="rgb(0, 0, 0)" stroke="rgb(60, 60, 60)" stroke-width="1px" opacity="0.25"></line><line x1="0" y1="283.37109375" x2="1425.125" y2="283.37109375" fill="rgb(0, 0, 0)" stroke="rgb(60, 60, 60)" stroke-width="1px" opacity="0.25"></line><line x1="0" y1="251.88541666666669" x2="1425.125" y2="251.88541666666669" fill="rgb(0, 0, 0)" stroke="rgb(60, 60, 60)" stroke-width="1px" opacity="0.25"></line><line x1="0" y1="220.39973958333331" x2="1425.125" y2="220.39973958333331" fill="rgb(0, 0, 0)" stroke="rgb(60, 60, 60)" stroke-width="1px" opacity="0.25"></line><line x1="0" y1="188.9140625" x2="1425.125" y2="188.9140625" fill="rgb(0, 0, 0)" stroke="rgb(60, 60, 60)" stroke-width="1px" opacity="0.25"></line><line x1="0" y1="157.42838541666666" x2="1425.125" y2="157.42838541666666" fill="rgb(0, 0, 0)" stroke="rgb(60, 60, 60)" stroke-width="1px" opacity="0.25"></line><line x1="0" y1="125.94270833333334" x2="1425.125" y2="125.94270833333334" fill="rgb(0, 0, 0)" stroke="rgb(60, 60, 60)" stroke-width="1px" opacity="0.25"></line><line x1="0" y1="94.45703125" x2="1425.125" y2="94.45703125" fill="rgb(0, 0, 0)" stroke="rgb(60, 60, 60)" stroke-width="1px" opacity="0.25"></line><line x1="0" y1="62.97135416666663" x2="1425.125" y2="62.97135416666663" fill="rgb(0, 0, 0)" stroke="rgb(60, 60, 60)" stroke-width="1px" opacity="0.25"></line><line x1="0" y1="31.48567708333337" x2="1425.125" y2="31.48567708333337" fill="rgb(0, 0, 0)" stroke="rgb(60, 60, 60)" stroke-width="1px" opacity="0.25"></line><line x1="0" y1="0" x2="1425.125" y2="0" fill="rgb(0, 0, 0)" stroke="rgb(60, 60, 60)" stroke-width="1px" opacity="0.25"></line></g></g></g><g><g><line x1="0" y1="346.3424479166667" x2="1425.125" y2="346.3424479166667" fill="rgb(0, 0, 0)" stroke="rgb(153, 153, 153)" stroke-width="1.5px"></line></g></g><g><g><line x1="158.3472222222222" y1="0" x2="158.3472222222222" y2="377.828125" fill="rgb(0, 0, 0)" stroke="rgb(153, 153, 153)" stroke-width="1.5px"></line></g></g><g><g><g><g><g><path stroke="rgb(255, 112, 67)" stroke-width="2px" d="M161.51416666666665,318.3329253687989L163.0976388888889,305.3684613185641L163.889375,304.1260757511488L164.6811111111111,300.3907192839816L165.4728472222222,303.8126017819134L166.26458333333335,307.9441771098925L167.05631944444445,312.4850830136909L167.84805555555556,316.2616390072377L168.63979166666667,319.5270139661463L172.59847222222223,322.7410223339877L174.18194444444444,325.02771135766864L174.97368055555555,326.78929125654804L175.76541666666668,327.6011937776961L177.3488888888889,327.84324427368784L178.140625,327.22966004826196L178.9323611111111,325.7643136737621L180.51583333333335,324.17344232519923L182.09930555555553,323.3979383179504L185.26625,318.28465657097934L186.05798611111112,315.2138741052173L186.84972222222223,314.79331189269254L187.6414583333333,314.704697413545L188.43319444444444,315.33982548851804L189.22493055555555,316.3396296633967L190.01666666666665,315.8689909599408L190.8084027777778,317.75816354203727L191.6001388888889,315.78443870978435L192.391875,308.79864193948833L193.9753472222222,304.1403187534846L194.76708333333332,291.7408840935628L195.55881944444442,296.28420560377066L197.14229166666667,298.8487256269356L197.9340277777778,298.9532710984589L199.5175,299.3773052013457L201.10097222222223,294.508485912844L201.89270833333333,291.38957351159115L203.47618055555557,290.9248779806949L204.26791666666668,288.3907269612887L205.05965277777779,288.100735222419L205.85138888888886,290.35989812482296L214.56048611111112,285.47850406302103L215.35222222222222,271.32662929832327L216.93569444444447,253.23103985439687L220.1026388888889,250.4351419652009L221.6861111111111,248.3839046142379L223.26958333333334,242.06994041923343L224.06131944444445,256.5579440633077L224.85305555555553,259.96965654132384L225.64479166666666,266.89122201444513L226.43652777777777,272.87316227236886L228.02,276.57675542746705L228.81173611111112,278.1640493949911L229.60347222222225,278.76189027840553L230.3952083333333,273.220552410301L231.18694444444444,262.6108280314513L231.97868055555554,247.84090170030666L233.56215277777778,222.65251373630676L234.3538888888889,204.96341029265056L236.7290972222222,202.09251608592365L238.31256944444445,156.09372270280738L239.10430555555556,152.03359125034606L239.89604166666666,180.78295499857597L242.27125,218.71980841790142L243.0629861111111,245.9829360245108L243.85472222222222,268.3236016235685L244.64645833333333,279.35346362576297L245.43819444444443,287.5697074782491L248.60513888888892,271.85912322428806L249.396875,270.2497739264492L250.9803472222222,248.0517359063784L255.73076388888887,243.906159646803L256.5225,249.2068847240401L257.3142361111111,247.70628259794896L258.89770833333336,244.86233665745021L261.2729166666667,241.99642761422916L262.8563888888889,243.11853998886778L263.648125,221.77424510723893L264.4398611111111,216.10897324015158L266.02333333333337,206.34669155090953L267.6068055555555,193.1900828382662L268.39854166666663,210.7272158688268L269.1902777777778,227.7144753280061L269.9820138888889,226.69270017693043L270.77375,230.6952698739953L271.5654861111111,228.92843873184952L273.94069444444443,210.2615088715245L274.73243055555554,189.0219531510486L275.52416666666664,188.92747362291516L277.1076388888889,199.36172814076355L277.899375,207.44099800336892L280.27458333333334,200.73927417828955L281.06631944444445,206.26172906769733L281.85805555555555,203.88543649146743L282.64979166666666,206.70993060639444L283.44152777777776,216.06512418915935L285.02500000000003,202.5231707333263L285.8167361111111,195.17939805171147L286.6084722222222,202.18084436139696L288.98368055555557,188.01391150007828L290.5671527777778,186.21905018491026L291.3588888888889,195.9801866986548L292.9423611111111,192.23615885518134L293.7340972222222,193.21023347461528L295.3175694444445,195.62572175021094L296.9010416666667,200.38988749561074L297.6927777777778,203.37927154299382L298.4845138888889,211.60467858203248L299.27625,224.40716567303002L300.8597222222222,230.06130715611104L301.6514583333333,220.5498987373022L302.44319444444443,205.63101348457784L303.2349305555556,198.136647421773L304.81840277777775,210.558245077696L305.61013888888886,213.59089937141283L306.401875,200.80833935003312L307.1936111111111,186.77875848989254L307.98534722222223,193.28755289575253L308.77708333333334,196.73012738161393L310.36055555555555,168.28080148870043L311.15229166666666,172.1363203993745L311.94402777777776,173.34638241868188L312.73576388888887,163.77236728985326L314.31923611111114,158.79644729063403L315.90270833333335,179.93526573017306L316.6944444444444,186.13828115579042L317.48618055555556,178.18546736092725L318.27791666666667,172.07395836467535L320.653125,187.50446918508771L321.44486111111115,188.50355067423132L323.0283333333333,198.0925090278467L325.4035416666667,186.52847254586484L326.1952777777778,168.09093135132173L328.5704861111111,180.76347078015937L329.3622222222222,189.20146703273764L331.73743055555553,186.07001948154488L332.5291666666667,196.03299291457657L333.3209027777778,195.77457904603173L334.1126388888889,193.6171742952703L334.90437499999996,188.30655887462314L335.6961111111111,186.2522240096316L336.48784722222223,179.11947908673352L338.86305555555555,184.2538878465038L340.4465277777778,181.95434303321352L341.23826388888887,164.7321302527698L342.03,172.28808650204394L342.8217361111111,163.00206730851428L343.61347222222224,159.91341742721053L345.19694444444445,176.04800487939016L345.98868055555556,179.34885534134088L346.78041666666667,187.89197558499262L347.5721527777778,184.29792857934495L349.9473611111111,166.6581809126746L350.7390972222222,177.6519111733463L351.53083333333336,186.10233011081678L353.1143055555556,197.78738785559233L353.9060416666666,203.64797480662068L354.6977777777778,211.05186231616028L355.4895138888889,216.4289106955481L357.8647222222222,204.64542180683432L359.4481944444445,187.84008313286515L364.9903472222222,183.14952862641113L366.5738194444445,198.41911344830868L368.1572916666667,193.60272617825785L372.90770833333335,206.6193535848702L375.2829166666666,205.84652621061622L376.07465277777777,192.33327144849375L376.8663888888889,174.85344132548946L377.65812500000004,178.21522366678255L378.4498611111111,187.90414477747703L379.24159722222225,176.3976060899627L380.82506944444447,178.17902615294773L381.6168055555556,168.4894517296852L383.9920138888889,176.89179586194976L384.78375,160.18938421699445L386.36722222222227,162.72159250963966L387.1589583333333,170.99494543727482L389.53416666666664,181.35240517752223L390.3259027777778,184.09866458729138L391.11763888888885,171.7416021521901L391.909375,180.78496716549068L392.7011111111111,179.099241321228L393.49284722222217,196.9594402827625L394.28458333333333,175.50655783838542L395.07631944444444,179.19798786907128L395.8680555555556,180.7892952303876L396.65979166666665,191.28275391858242L398.24326388888886,210.94067799377254L399.82673611111113,209.31156849996296L400.6184722222222,215.13525087390747L403.78541666666666,196.04348355432404L404.5771527777778,173.53634727951436L406.160625,159.99612072165692L406.95236111111114,146.5853544953861L407.7440972222222,151.88317843089698L409.3275694444444,145.27074372053175L410.11930555555557,153.53700155299967L410.9110416666667,158.44456283728871L411.7027777777777,162.9245295116664L414.0779861111111,179.2575238591385L416.4531944444444,194.39980132110924L418.0366666666667,189.25697729289917L418.82840277777774,186.13351120530297L420.41187499999995,195.94875210334993L421.2036111111111,199.78101574053665L423.57881944444443,186.80864861438872L424.37055555555554,184.10886869074798L425.16229166666665,167.30145930696597L426.7457638888889,179.5334186393279L427.53749999999997,171.08484408714622L428.32923611111113,177.36781437685224L429.12097222222224,175.78679808417124L429.9127083333334,176.03380123351604L430.70444444444445,184.90547732135593L431.4961805555555,197.896536125808L432.28791666666666,191.41174955271916L433.87138888888893,196.0634385296719L434.663125,197.56304989862252L436.24659722222225,199.7077039239291L439.4135416666667,194.44224393810694L440.2052777777778,187.00466832572144L440.99701388888894,166.34013108970092L441.78875,168.06768673549743L443.3722222222222,168.5403970608696L444.1639583333333,171.31698715286723L445.7474305555555,175.38150450492128L446.5391666666667,181.17850056873138L447.3309027777778,187.70208945345055L448.914375,191.56162852868087L449.70611111111106,180.95528431082312L450.4978472222222,181.82250953499369L451.2895833333333,176.68010440733582L452.87305555555554,178.38633881606754L453.6647916666667,177.64254645073643L455.24826388888886,176.98829357787915L456.04,160.22483651072247L456.83173611111107,165.98673941246818L457.62347222222223,182.3313524986867L459.2069444444445,194.8422756335628L459.99868055555555,200.27945497666772L461.58215277777776,205.5749133347762L462.37388888888887,202.71536179615566L463.16562500000003,209.69464973016963L463.9573611111111,222.01523061476078L464.74909722222225,220.42542050561113L465.54083333333335,209.50428328203068L468.7077777777778,193.43912475696777L469.4995138888889,170.87245811992992L471.0829861111111,174.04976132907964L471.87472222222226,183.44679389366974L473.4581944444444,153.1873270339354L474.2499305555556,153.94351558302517L475.04166666666663,161.9401731133777L475.8334027777778,149.9030481299879L476.6251388888889,163.69210037811226L477.416875,159.92246729707503L478.2086111111111,142.98919798619443L479.0003472222223,142.89123178501382L479.7920833333333,160.262234288995L480.58381944444443,171.24241764988696L482.9590277777778,168.87670380580676L484.5425,167.29887932291382L486.1259722222222,178.2083832121078L487.70944444444444,175.1287715023134L488.50118055555555,173.3967126642387L489.29291666666666,169.68273218909266L490.0846527777778,159.98029702413498L491.668125,169.14269276482074L493.2515972222222,164.83321632478774L494.8350694444444,174.57554928279765L495.62680555555556,179.0336999469761L496.41854166666667,186.00302541690502L498.79375,192.90050494447306L500.3772222222222,191.21998261808028L501.16895833333336,195.4019889626015L501.9606944444444,202.48448264168943L502.7524305555556,183.39927828346043L503.5441666666667,166.8852618474444L504.33590277777773,159.8027905384103L505.919375,141.22928012944584L506.7111111111111,102.06288698899363L507.5028472222222,116.74733524215378L509.87805555555553,141.7135946765999L510.6697916666667,154.94778810511235L512.2532638888889,143.72542643325988L513.045,130.81218019668356L514.6284722222222,161.7374567151246L517.0036805555555,168.0800424312406L518.5871527777778,187.3800162534666L519.3788888888889,203.59918355947033L520.170625,196.94596173793371L520.9623611111111,193.9429161112241L523.3375694444444,188.35364702695108L527.29625,182.46853400497486L528.0879861111111,179.28875193352965L528.8797222222222,185.65029492165982L532.0466666666667,169.44692447305727L532.8384027777778,155.1549918905999L533.630138888889,155.73244033857748L536.0053472222222,175.92574506716986L536.7970833333333,185.26364774597175L537.5888194444444,186.81030336732508L538.3805555555556,184.06818272541165L539.9640277777778,155.28163393932132L540.7557638888889,169.82221850810487L541.5475,180.37986906843852L543.1309722222222,187.5974222245534L543.9227083333333,186.10127995857732L544.7144444444444,175.0863797107165L545.5061805555556,166.10638260469705L547.0896527777778,174.089095200079L548.673125,161.01240867707435L549.4648611111111,158.53376356567296L551.8400694444445,163.73056776396479L553.4235416666667,182.98702864120023L554.2152777777778,199.71504321207883L555.0070138888889,185.02296826764072L557.3822222222223,194.25089388765053L558.1739583333333,196.99948230408398L558.9656944444445,188.4085766948489L559.7574305555555,185.41145694901857L560.5491666666667,176.1191771632698L561.3409027777778,173.9747209423494L562.1326388888889,171.2354797795807L562.924375,177.78239657005525L563.7161111111111,162.60540004570862L564.5078472222223,162.95597238899788L565.2995833333333,155.59487465377163L566.0913194444444,139.361348992031L568.4665277777779,156.1335495352951L569.2582638888889,164.19871027773257L570.0500000000001,176.9235884239503L570.8417361111111,183.59284959926796L571.6334722222222,175.6288834326383L572.4252083333333,187.48385563886671L573.2169444444444,188.54561704043704L574.0086805555555,191.2420885601953L574.8004166666667,148.37891130932377L577.1756250000001,153.5278658655209L578.7590972222222,165.9190365345683L579.5508333333333,165.94687173809206L581.9260416666666,161.39178982132339L583.5095138888889,164.53589101038477L584.30125,177.38375325683973L585.8847222222222,175.43067827972186L587.4681944444444,183.3882752564748L589.0516666666666,175.81789878499774L591.426875,175.78290213852952L592.2186111111112,166.08824164528622L593.0103472222222,170.0417642514552L593.8020833333334,167.2534753705941L594.5938194444444,174.52434570040978L595.3855555555556,173.06839247319397L596.1772916666666,179.6948450060141L596.9690277777778,169.4478140192696L597.7607638888888,164.69256263098427L598.5525,151.05930896431585L599.3442361111112,163.09077656328753L600.1359722222222,159.87391552875573L600.9277083333334,166.70657461242993L601.7194444444444,152.8278816338161L602.5111805555555,151.70118535792022L604.0946527777777,154.924981778932L604.8863888888889,155.24159884982245L605.678125,155.8232343027469L607.2615972222222,173.07832600787245L608.8450694444444,172.57673270222529L611.2202777777777,167.77215205792209L612.0120138888889,168.7612517893421L612.80375,151.61546876704537L615.1789583333333,153.27973978939204L615.9706944444445,158.82379024087925L617.5541666666667,168.0160667545178L618.3459027777777,155.27420972451915L619.1376388888889,152.64709710307196L622.3045833333333,157.4508853190678L623.0963194444445,152.38628532185692L624.6797916666667,150.67336051511086L625.4715277777777,158.05647339630133L627.055,165.22252447542633L627.8467361111111,169.536826197256L629.4302083333333,166.60372763482798L631.8054166666667,179.50395708528796L632.5971527777778,186.90037994698486L633.3888888888888,186.90889963667098L634.9723611111111,173.84313767820387L635.7640972222223,161.6408376458962L637.3475694444445,130.68602086753071L638.1393055555556,131.20263991675208L638.9310416666666,135.6657058261824L639.7227777777778,119.90128622010883L640.5145138888888,132.7081711020369L641.30625,136.6185150936954L642.8897222222223,149.08706126326177L643.6814583333334,123.59561475470613L645.2649305555556,120.33251955263978L646.0566666666666,109.95550612422596L646.8484027777778,127.93102131801038L647.6401388888888,127.58648384530503L650.8070833333334,116.27914221383355L651.5988194444444,133.5430426578985L652.3905555555556,109.13261535552323L655.5575,128.07328298999508L656.349236111111,137.76612723684661L657.1409722222222,157.09178786925145L657.9327083333334,172.16881337426423L658.7244444444444,174.9055561277747L661.0996527777778,183.11630906942727L661.8913888888889,192.8023571111992L663.4748611111111,177.84495189956047L665.0583333333334,182.51559578685553L666.6418055555556,170.1201286334412L668.2252777777778,148.5718489744596L669.0170138888889,148.69705324946278L670.6004861111111,138.59569765074653L671.3922222222222,136.79043909903285L672.1839583333333,132.7066945916661L672.9756944444445,137.3623316465773L673.7674305555556,149.93039390992982L674.5591666666667,157.33399649753488L676.9343749999999,164.24177662591785L677.7261111111111,171.34964334308196L678.5178472222221,179.67613703866914L679.3095833333333,170.14004120377513L680.8930555555556,167.60768550230682L681.6847916666667,166.28371457348143L683.2682638888889,177.06621134876306L684.06,177.90786355276828L684.8517361111111,174.28232749728468L686.4352083333333,185.64517738735105L687.2269444444445,168.88970303465206L688.0186805555555,169.98041991305837L688.8104166666667,172.0711031921883L689.6021527777777,152.66706484535567L690.3938888888889,150.29669102204574L694.3525694444445,155.32777251515805L695.9360416666667,150.40831578154493L696.7277777777778,155.1403554484284L699.1029861111111,150.50939139430184L700.6864583333333,151.5495686659472L701.4781944444444,165.6813346211364L703.0616666666667,166.669453130167L704.6451388888889,155.61429993732415L705.436875,153.0339000517883L706.2286111111111,149.7458724548424L708.6038194444444,154.0663745848724L709.3955555555556,152.09185738408027L710.1872916666667,145.4599149560083L710.9790277777778,141.9353313112801L711.770763888889,142.18877375180327L713.354236111111,135.25717681092314L716.5211805555556,146.41146348751096L717.3129166666666,155.31395370048983L718.896388888889,166.22752942975774L719.688125,150.2282026771246L720.4798611111111,142.9959755818522L721.2715972222221,154.9925460310921L723.6468055555556,151.44649030594158L724.4385416666667,148.73242199802047L726.81375,142.35858022418049L728.3972222222221,145.67236859030672L729.9806944444445,135.74498921281236L730.7724305555555,143.9016668518635L731.5641666666667,160.52004202620475L732.3559027777777,151.71233681810264L733.147638888889,168.15745516723427L733.939375,162.03547966076042L734.7311111111111,143.53027835716767L735.5228472222221,150.84352556797418L736.3145833333334,147.71222435849668L737.8980555555555,151.28025516040753L739.4815277777777,141.52163122063732L740.273263888889,147.0829195734445L741.8567361111111,155.53120793717974L742.6484722222222,165.72477087217794L743.4402083333332,176.40475218657298L745.0236805555555,182.49271978244087L745.8154166666667,179.2954923699503L746.6071527777777,169.16664707005143L747.3988888888889,157.8380028747955L748.1906250000001,142.26825570225748L748.9823611111111,157.7607284210203L749.7740972222222,155.89454426895458L750.5658333333332,148.70458127189448L752.9410416666667,161.40311955344606L753.7327777777778,163.58122608155338L756.1079861111111,167.0348885200654L757.6914583333332,151.5114554079063L759.2749305555556,162.8539788941585L760.8584027777778,159.41765871712587L762.4418750000001,162.86925539999356L764.0253472222222,161.9743160190433L765.6088194444445,175.47646952015154L766.4005555555556,183.58879130703895L767.1922916666666,171.146569602273L768.7757638888888,181.58242114323008L769.5675,178.07729209718255L770.3592361111112,157.4813558903717L772.7344444444445,147.93846418181178L774.3179166666666,146.52176978273533L775.1096527777778,155.12740668178478L775.9013888888888,158.93519368379594L777.4848611111112,173.94818932090064L778.2765972222222,163.18223109005234L779.8600694444445,155.39463280329653L780.6518055555556,174.4863660163182L783.81875,182.36750801213404L784.6104861111112,145.56687068715513L786.9856944444443,144.17192983243567L790.944375,149.68761878243257L791.7361111111112,156.06831765667263L794.1113194444443,131.9109117665775L794.9030555555556,143.89264876335548L795.6947916666667,129.16979631522628L798.07,128.54949059960848L799.6534722222223,136.77290543950778L800.4452083333333,152.85929230914343L801.2369444444444,150.99837964477382L802.0286805555556,158.97223712139294L803.6121527777777,164.12003581142696L804.4038888888889,158.85038807574887L805.195625,170.52468831773544L806.7790972222223,165.0662507028839L807.5708333333333,166.92877520841284L808.3625694444444,172.4977933748499L809.1543055555557,169.5143407960992L809.9460416666667,152.17123214367425L810.7377777777778,158.6852882562709L812.32125,148.67968433955878L813.1129861111111,174.72261161676136L813.9047222222223,181.2509729316596L814.6964583333333,184.57582927521673L815.4881944444444,181.91577738092403L817.0716666666667,186.00927830202164L817.8634027777778,160.2231724676262L818.6551388888888,166.79567784111543L820.2386111111111,158.74820521325424L821.0303472222223,155.13007857792383L824.9890277777778,150.44495926464498L826.5725,152.03224163653604L828.9477083333334,160.44667474460545L829.7394444444444,176.12168119286258L830.5311805555555,184.76228466030003L831.3229166666667,199.99754002548184L832.1146527777778,200.37181700853668L834.4898611111112,209.05417651891244L835.2815972222222,197.59729030534086L836.0733333333334,207.3758369783637L836.8650694444444,204.8360627982328L838.4485416666668,173.6078701042031L839.2402777777778,173.79110488842218L840.0320138888889,176.26635069455304L841.6154861111111,176.9185893621864L842.4072222222222,169.02795663208195L843.9906944444444,168.03908365431738L844.7824305555555,161.71323737501055L845.5741666666668,153.17727141037793L846.3659027777778,162.43776842829047L847.1576388888889,165.76935622563533L847.9493749999999,161.93326452057232L848.7411111111111,154.03502038379713L850.3245833333333,156.4121530301249L851.1163194444445,159.59270977291564L852.6997916666668,170.25831222706952L853.4915277777778,164.10912048210227L854.2832638888889,171.3997899005854L855.8667361111111,162.37374266285494L858.2419444444445,166.88848509527494L859.0336805555555,170.6216879350691L860.6171527777778,163.07102577304875L862.200625,140.77607811450153L862.992361111111,157.53269873251114L863.7840972222223,144.220209018926L864.5758333333333,136.45498208464042L867.7427777777779,117.14708422574927L868.5345138888889,111.22857671204127L870.117986111111,130.33468665806373L870.9097222222223,144.76549416887786L871.7014583333333,150.4899398301944L872.4931944444445,154.0042692708992L873.2849305555555,171.16258696113152L874.8684027777779,175.49107563298693L878.0353472222223,152.34634440625695L878.8270833333333,154.9222601474508L879.6188194444444,158.34671785201687L881.9940277777779,173.42965900867995L882.7857638888889,178.53390188110765L885.1609722222222,166.70636055136785L886.7444444444444,159.50625892883974L887.5361805555556,153.57902143818922L888.3279166666666,158.77001454090941L889.1196527777779,158.02650555211693L889.911388888889,163.20206476759805L890.703125,152.30177805484266L892.2865972222221,134.29650980752106L893.0783333333334,147.03601788888332L894.6618055555556,138.70469297463734L895.4535416666666,154.03599076507737L896.2452777777778,154.79607610530664L897.037013888889,153.84688942149796L898.6204861111111,158.33371045073437L900.2039583333334,172.3764449656753L903.3709027777777,172.81197102726557L904.954375,155.7383195071552L907.3295833333334,128.81950327825595L908.1213194444445,123.89354803319637L908.9130555555555,98.83085793351768L910.4965277777777,109.97820346714894L911.288263888889,117.92998765508366L912.08,124.40515082370311L914.4552083333334,145.2284067974373L915.2469444444445,151.38241202708173L916.0386805555555,154.94804376008835L917.6221527777777,162.40944843151644L918.413888888889,166.28697841937787L919.9973611111111,176.09282988158154L920.7890972222222,185.18457619098865L921.5808333333332,187.02902798480994L923.1643055555555,185.65970563021148L924.7477777777777,189.7699326958951L927.1229861111111,177.06499623498686L929.4981944444445,170.68642670983095L930.2899305555555,163.50411903982467L931.8734027777778,134.88566217199164L932.6651388888889,136.3602365469847L933.4568750000001,131.2825148988047L934.2486111111111,120.88599413734761L935.0403472222222,132.34417981602556L936.6238194444445,135.65735312774115L937.4155555555556,141.4092175472226L938.2072916666666,134.4850576714299L940.5825000000001,130.06834526197213L942.1659722222222,94.18796420297934L942.9577083333332,112.95763441653042L943.7494444444445,117.75571544204598L945.3329166666666,124.67268322244632L946.1246527777778,141.10652185884263L946.9163888888888,149.68375218080135L953.2502777777778,141.48904996691698L954.0420138888888,139.5731569625971L954.83375,135.7377298319572L955.6254861111112,139.5273073473496L957.2089583333333,131.22116791163717L958.7924305555556,119.75849894000419L959.5841666666666,133.19332415870522L960.3759027777777,146.66303968654677L968.2932638888889,143.21011011161195L969.085,154.29882522672173L970.6684722222222,143.7798770175746L971.4602083333333,145.46131554941732L973.0436805555556,139.72888905124557L975.4188888888889,149.9012580678354L976.210625,143.20500978849802L977.0023611111111,150.12397594399513L977.7940972222223,144.99375113795506L978.5858333333333,122.66999952185213L979.3775694444444,124.26663828990809L980.1693055555556,123.73325846213686L982.5445138888889,136.3215199130084L983.33625,139.09442691608632L984.9197222222223,129.90026271096815L985.7114583333333,119.50074615967503L986.5031944444444,114.70652599556308L987.2949305555557,112.39248592159834L989.6701388888888,99.41002741006685L991.2536111111111,111.72998178415037L992.0453472222223,123.77181718133218L992.8370833333333,140.26013867961507L993.6288194444444,149.00013057242356L994.4205555555557,160.64468132039696L995.2122916666667,172.02368824729746L996.0040277777778,176.77620103452043L996.7957638888888,183.73435478767206L998.3792361111111,183.52341859379143L999.9627083333334,194.2271493469358L1000.7544444444444,176.50631721919845L1001.5461805555555,180.52555735162963L1002.3379166666667,170.84498773060673L1004.713125,166.82253743088836L1005.5048611111112,151.81169775680615L1006.2965972222222,155.49200883332017L1007.0883333333334,149.42202717060957L1007.8800694444444,127.23916760590788L1008.6718055555555,133.77470029737356L1010.2552777777778,114.13098061864468L1011.0470138888888,108.05965292990265L1012.6304861111112,86.7716087537496L1015.0056944444444,100.57307678891328L1016.5891666666668,122.72445667923196L1017.3809027777778,149.98718077391644L1018.1726388888889,169.17005392837555L1018.9643749999999,178.95275044547145L1019.7561111111111,176.8508943064314L1020.5478472222222,178.14528336996915L1022.1313194444444,168.95164728238427L1022.9230555555555,148.00702200226496L1026.881736111111,123.57809532214341L1027.6734722222222,104.8530201560427L1028.4652083333333,105.72644228653934L1029.2569444444443,95.45359702818826L1031.6321527777777,113.36177236249108L1032.423888888889,120.34470337493394L1034.7990972222224,133.4961297394067L1036.3825694444445,146.40643265430617L1037.1743055555555,148.9339520983732L1038.7577777777778,159.64016567827107L1039.549513888889,167.92369644740873L1041.132986111111,168.6633907866697L1041.9247222222223,170.40981037921708L1042.7164583333333,175.96508999799173L1043.5081944444444,175.88870359451948L1044.2999305555554,150.2040750851733L1045.0916666666667,146.41698109715765L1045.8834027777777,152.82119984869104L1046.6751388888888,155.35320655753245L1048.2586111111111,136.98818395479603L1049.0503472222224,127.56803534076425L1052.2172916666666,119.11671080260584L1053.0090277777779,108.93937902536135L1054.5925,124.81352288648085L1056.1759722222223,139.74073943768477L1056.9677083333333,127.50220563097176L1057.7594444444444,133.60612278884494L1058.5511805555554,145.67936012450255L1060.1346527777778,149.8237892985549L1060.9263888888888,147.37189214212006L1062.5098611111111,158.62870828406403L1064.0933333333335,152.01265353335364L1064.8850694444445,151.2729905822653L1065.6768055555556,148.13711165706002L1066.4685416666666,144.45516305690361L1068.052013888889,143.1049632819501L1070.427222222222,135.07188283598407L1071.2189583333334,131.98696148771361L1072.0106944444444,136.85064635672285L1072.8024305555555,141.24567573859792L1073.5941666666665,139.83375863403754L1074.3859027777778,144.16167045649667L1075.1776388888889,128.63541150039683L1075.969375,115.4466053290069L1076.7611111111112,117.93555980521927L1077.5528472222222,123.77070860455808L1079.1363194444446,142.61120663326886L1080.7197916666667,150.57588991466557L1081.5115277777777,156.6521785510066L1082.303263888889,143.3662993556661L1083.095,141.74628618121216L1083.886736111111,151.83918023159706L1084.6784722222221,158.08167324201708L1085.4702083333334,158.81102974521846L1086.2619444444445,151.99054135829218L1087.0536805555555,136.79609561442066L1087.8454166666666,137.37639507167796L1089.4288888888889,134.48290314251122L1090.220625,139.94996797802736L1091.0123611111112,148.65045661650396L1094.1793055555556,153.28851518561405L1095.7627777777777,133.6273374689322L1096.554513888889,143.45009841136073L1097.34625,154.36551018944203L1098.137986111111,151.26461923724688L1098.9297222222222,149.03899160707763L1099.7214583333332,154.2833296048323L1101.3049305555555,155.08140645534104L1102.8884027777776,145.94895246963145L1103.680138888889,126.53739229485194L1104.471875,127.06553789465221L1105.263611111111,121.3384768899192L1106.0553472222223,125.85540893916706L1107.6388194444446,123.9065085236611L1109.2222916666667,124.36082494266597L1110.0140277777778,141.4265227789917L1110.805763888889,123.6371526182781L1111.5975,141.75493345305054L1112.3892361111111,164.2023919012272L1113.1809722222222,173.76373262883067L1114.7644444444445,163.44908932730004L1115.5561805555556,158.03121305435383L1116.3479166666666,158.8456314512405L1117.1396527777777,145.82458378206366L1118.723125,135.1594418651924L1119.514861111111,141.31852137247176L1121.0983333333334,132.81604766611602L1121.8900694444444,116.044102606183L1122.6818055555557,125.672455899272L1125.0570138888888,124.33397780792768L1125.84875,114.31782778244087L1126.6404861111112,108.37722849412012L1127.4322222222222,111.05323974824154L1128.2239583333333,113.1583891610835L1129.8074305555556,130.2305789185503L1132.1826388888887,141.50500000948028L1133.766111111111,141.06458400320614L1135.3495833333334,134.11716561968578L1138.5165277777778,130.65385741623678L1140.1000000000001,134.86921111097095L1141.6834722222222,126.28442818400049L1142.4752083333333,128.860367233666L1143.2669444444443,114.36960545897011L1146.4338888888888,116.95063814619874L1147.225625,101.98858934267452L1148.017361111111,107.89458789543488L1148.8090972222221,102.95030298582225L1151.9760416666668,120.52037064392977L1152.7677777777778,137.2089904481593L1154.3512500000002,141.99060338054653L1155.1429861111112,131.34019310268002L1156.7264583333333,129.66059884571652L1157.5181944444444,112.23982979043598L1158.3099305555556,119.79808828430203L1159.1016666666667,111.62742585794899L1159.8934027777777,122.60255434521656L1160.6851388888888,133.0230153505987L1161.4768749999998,138.48606595207372L1162.268611111111,138.97349515259606L1163.8520833333332,144.29106292545137L1166.2272916666666,141.040605157218L1167.0190277777779,142.90416724563036L1168.6025,149.77565484693238L1169.3942361111112,165.06552801728998L1170.1859722222223,164.506125499585L1171.7694444444444,167.0354383219708L1172.5611805555557,157.81668848197228L1173.3529166666667,151.36458065910608L1174.1446527777778,143.09357768217095L1175.7281249999999,134.79583646902125L1176.5198611111111,124.05858749634697L1178.1033333333332,110.1371392679315L1178.8950694444443,113.9828643875411L1180.4785416666666,125.32529839590185L1182.85375,135.02411493448528L1183.6454861111113,135.027963261971L1184.4372222222223,147.8134680407838L1185.2289583333334,146.22490536865408L1186.8124305555555,144.1921658978644L1189.1876388888888,151.3026791585361L1189.979375,165.15606334870458L1191.5628472222222,157.7292784619792L1193.1463194444443,162.9786407348087L1193.9380555555556,140.4791545787377L1195.5215277777777,144.09719357877736L1196.313263888889,158.02531276653863L1197.105,165.07424286912578L1197.896736111111,168.01653462979934L1198.6884722222223,164.74161803566943L1199.4802083333334,150.2654306214632L1201.0636805555555,146.5407046121998L1201.8554166666668,142.12351779913735L1205.022361111111,128.17950084706916L1205.8140972222222,130.6983451969548L1206.6058333333333,132.2953512006436L1208.1893055555554,129.5256831235272L1209.7727777777777,129.5452925399295L1210.564513888889,128.6320817900584L1211.35625,130.95282065092672L1212.147986111111,124.99889484897497L1212.9397222222224,133.923043964024L1213.7314583333334,129.51771058750592L1215.3149305555555,135.16345997264347L1216.1066666666668,129.61555889148678L1216.8984027777778,139.2187335508633L1217.690138888889,145.566574756785L1219.273611111111,140.17466839336765L1221.6488194444444,145.1907328005543L1222.4405555555554,148.7291858468135L1223.2322916666667,123.74388397513178L1224.8157638888888,130.6773194208321L1226.3992361111111,130.98120086082068L1227.1909722222224,125.01009992214125L1227.9827083333334,141.0739792291824L1228.7744444444445,130.97230367299383L1230.3579166666666,132.3108953243243L1231.1496527777779,138.039764541759L1231.941388888889,130.46306144154258L1235.1083333333333,135.60607371173066L1236.6918055555554,134.65911627384168L1239.0670138888888,141.82972117974106L1239.85875,137.12690631154612L1241.4422222222222,135.01213414819654L1242.2339583333335,142.4735293921454L1243.8174305555556,128.7392933312976L1244.6091666666666,124.50790812209141L1245.400902777778,133.00633211201037L1246.192638888889,122.61544143764115L1247.776111111111,133.05696000080107L1248.567847222222,141.55518688848605L1249.3595833333334,146.80915957284031L1251.7347916666665,120.66902560261309L1253.3182638888889,122.85455769037648L1254.11,129.73449901298287L1254.9017361111112,145.3231333225652L1259.6521527777777,146.1171479810969L1260.443888888889,144.68933431239273L1261.235625,150.0441197938545L1262.8190972222221,152.25866017894566L1264.4025694444445,159.68224917928416L1265.1943055555555,157.48911517162776L1267.5695138888889,158.30031759435903L1268.36125,161.66229025984023L1269.1529861111112,153.78504847458456L1269.9447222222223,163.95655032263102L1270.7364583333333,169.190162966336L1271.5281944444446,162.32890129085817L1273.9034027777777,145.5852423693392L1274.695138888889,141.03940953041936L1276.278611111111,134.57211221311115L1277.0703472222222,126.28065479230483L1277.8620833333332,108.87126287747395L1278.6538194444445,69.24916957291742L1280.2372916666666,58.90797472141071L1281.0290277777776,79.61939069371186L1281.820763888889,111.83484431003257L1282.6125,125.4403107379394L1284.9877083333333,124.49586664982303L1285.7794444444446,141.66427189534957L1287.3629166666667,151.25941242169407L1288.1546527777778,159.01043794359026L1288.946388888889,154.81877816099782L1289.738125,158.03031390748222L1290.5298611111111,159.5478356507823L1291.3215972222222,155.8951190597767L1292.1133333333332,158.62932892523864L1292.9050694444445,158.66827311503073L1294.4885416666666,148.1298521201648L1295.2802777777777,147.5598382566603L1296.86375,145.6035957648363L1298.4472222222223,133.1361086622601L1300.8224305555557,117.47825144770417L1301.6141666666667,137.7160744120598L1302.4059027777778,135.79258019802975L1303.1976388888888,141.10194707359L1303.989375,133.118332001959L1304.7811111111112,121.26808576765353L1306.3645833333333,138.63723508266614L1310.3232638888887,144.29115664079032L1311.906736111111,150.3118603929851L1313.4902083333334,145.90441901028802L1315.0736805555557,140.56617412752212L1316.6571527777778,137.41298318567775L1318.2406250000001,123.7685541143779L1319.0323611111112,106.30406587360125L1320.6158333333333,101.5296245661213L1322.9910416666667,110.53800087431807L1323.7827777777777,119.3816746070932L1324.5745138888888,125.34526815436169L1325.36625,135.58589056373626L1329.3249305555555,142.84675553831713L1330.1166666666668,152.74562963174927L1330.9084027777778,155.23179122501946L1331.700138888889,157.69976222326162L1334.8670833333333,156.81699125837108L1335.6588194444444,158.7730246201149L1338.0340277777777,136.99073959733315L1338.8257638888888,141.0648235768268L1340.409236111111,131.71584099826106L1343.5761805555555,134.98028848852644L1344.3679166666666,127.93035724738576L1345.1596527777779,127.8719849642496L1345.951388888889,127.57614879982515L1346.743125,114.60612927852748L1347.5348611111112,117.10649695583658L1349.9100694444444,137.67948528328728L1351.4935416666667,147.09056303069036L1352.2852777777778,149.78035910756637L1354.6604861111111,164.23396372282247L1355.4522222222222,176.4613842631366L1356.2439583333332,173.58705313681105L1357.0356944444443,159.17011263793063L1357.8274305555556,152.58628939695873L1359.410902777778,162.5865066462981L1360.202638888889,157.84413297444803L1360.994375,148.49602273787232L1362.5778472222223,129.6741418102627L1364.1613194444444,116.5094773358635L1364.9530555555555,117.6481505639054L1365.7447916666667,119.8200028263496L1368.12,124.95120784650715L1368.9117361111112,116.94288701656774L1370.4952083333333,123.52361996696749L1371.2869444444443,127.97291808003675L1372.0786805555556,126.38956088951343L1375.245625,139.94161037993788L1376.037361111111,147.34963456203755L1377.6208333333334,154.73823180808716L1379.2043055555555,169.216892977372L1379.9960416666668,171.0537817232665L1380.7877777777778,173.81034569519866L1381.5795138888889,174.83008625396468L1382.37125,178.2306574193789L1383.162986111111,151.90573661446078L1383.9547222222222,119.02150547341972L1385.5381944444443,121.1418116050038L1386.3299305555554,117.771499744947L1387.1216666666667,122.34489398956572L1387.9134027777777,119.00150350315863L1388.705138888889,118.32754166267176L1389.496875,97.54880685617559L1391.0803472222224,107.83777979476326L1391.8720833333334,109.71855849039343L1392.6638194444445,118.72378880757321L1393.4555555555555,126.43217181572544" style="fill: none;" fill="none"></path></g></g></g></g><g opacity="0.20000000298023224"><g><g><g><path stroke="rgb(255, 112, 67)" stroke-width="2px" d="M161.51416666666665,318.3329253687989L163.0976388888889,296.38408773175126L163.889375,302.6684481265644L164.6811111111111,294.7650425070897L165.4728472222222,309.7553873710955L166.26458333333335,315.77984836138785L167.05631944444445,321.6000332390734L167.84805555555556,324.13219826086424L168.63979166666667,326.5059422769894L172.59847222222223,329.72864760039374L174.18194444444444,330.05765433314565L174.97368055555555,330.6953582313533L175.76541666666668,329.41143963400583L177.3488888888889,328.3849863708795L178.140625,325.852759418233L178.9323611111111,322.4700510373029L180.51583333333335,320.5924839004874L182.09930555555553,321.6508034039289L185.26625,306.7579827474741L186.05798611111112,308.28863575076684L186.84972222222223,313.8445841873375L187.6414583333333,314.5047558493291L188.43319444444444,316.7730691519876L189.22493055555555,318.59602641089197L190.01666666666665,314.8067644823653L190.8084027777778,322.0222027457785L191.6001388888889,311.3294144937148L192.391875,293.03019033558667L193.9753472222222,293.62531583212933L194.76708333333332,263.751954153801L195.55881944444442,306.5398059727935L197.14229166666667,304.63762413586176L197.9340277777778,299.18926273255295L199.5175,300.3344843634404L201.10097222222223,283.51800124657655L201.89270833333333,284.349180891489L203.47618055555557,289.87590922430775L204.26791666666668,282.67032172034186L205.05965277777779,287.44612904389703L205.85138888888886,295.4595689037815L214.56048611111112,274.4595964277784L215.35222222222222,239.3812015550211L216.93569444444447,212.3833495626847L220.1026388888889,244.12388150083524L221.6861111111111,243.75358753092587L223.26958333333334,227.81724696885794L224.06131944444445,289.26213315672555L224.85305555555553,267.67101377248764L225.64479166666666,282.51547206069034L226.43652777777777,286.3763692223778L228.02,284.9369835335141L228.81173611111112,281.74709405687946L229.60347222222225,280.1114138290286L230.3952083333333,260.7119298412775L231.18694444444444,238.66118967284757L231.97868055555554,214.50031886746484L233.56215277777778,165.79403543658555L234.3538888888889,165.03328431149325L236.7290972222222,195.61196336895227L238.31256944444445,52.25931292523944L239.10430555555556,142.8685388211161L239.89604166666666,245.67972722556442L242.27125,304.35576742794365L243.0629861111111,307.5247843295025L243.85472222222222,318.7538337380781L244.64645833333333,304.25149088042474L245.43819444444443,306.1164729166776L248.60513888888892,236.39516593515873L249.396875,266.6169431010882L250.9803472222222,197.94346115800244L255.73076388888887,234.5482301749289L256.5225,261.1723651100571L257.3142361111111,244.3189299159373L258.89770833333336,238.4426150393362L261.2729166666667,235.52712804762024L262.8563888888889,245.6515167824303L263.648125,173.59314949500063L264.4398611111111,203.3205908170591L266.02333333333337,184.31001008301973L267.6068055555555,163.49128857813776L268.39854166666663,250.31429466418922L269.1902777777778,266.06030856973183L269.9820138888889,224.38621750691283L270.77375,239.7303864865874L271.5654861111111,224.94011957384646L273.94069444444443,168.12410693926117L274.73243055555554,141.07728828365603L275.52416666666664,188.7142022450765L277.1076388888889,222.9152733553201L277.899375,225.67856808410335L280.27458333333334,185.61127870343626L281.06631944444445,218.72772658678394L281.85805555555555,198.52136236988008L282.64979166666666,213.08574305474758L283.44152777777776,237.18287387272966L285.02500000000003,171.954526613156L285.8167361111111,178.6020870798578L286.6084722222222,217.98541208977502L288.98368055555557,156.03448324960968L290.5671527777778,182.16745770474276L291.3588888888889,218.01428312870365L292.9423611111111,183.78465626388788L293.7340972222222,195.4090403517087L295.3175694444445,201.07827346026897L296.9010416666667,211.14417694695294L297.6927777777778,210.12729481607676L298.4845138888889,230.17212834767997L299.27625,253.30659093055874L300.8597222222222,242.82456464072067L301.6514583333333,199.07952077562612L302.44319444444443,171.95418130171797L303.2349305555556,181.2193976448228L304.81840277777775,238.59787757135928L305.61013888888886,220.43659782595932L306.401875,171.95389604444304L307.1936111111111,155.10937889354923L307.98534722222223,207.98004319953424L308.77708333333334,204.5011505695681L310.36055555555555,104.06131339818239L311.15229166666666,180.83949500881135L311.94402777777776,176.07789049483836L312.73576388888887,142.16066538666686L314.31923611111114,147.56415882334113L315.90270833333335,227.652533412911L316.6944444444444,200.14052770286798L317.48618055555556,160.23335022789738L318.27791666666667,158.27827193339667L320.653125,222.33620859403163L321.44486111111115,190.7588062832753L323.0283333333333,219.7379427055518L325.4035416666667,160.42463775103292L326.1952777777778,126.4713351043562L328.5704861111111,209.36956141268212L329.3622222222222,208.2488005931179L331.73743055555553,179.0013121428589L332.5291666666667,218.52270167383057L333.3209027777778,195.19125392908853L334.1126388888889,188.74720200772086L334.90437499999996,176.3187527296444L335.6961111111111,181.61491436325014L336.48784722222223,163.01852719237408L338.86305555555555,195.84393758761388L340.4465277777778,176.76351386184493L341.23826388888887,125.85593006759882L342.03,189.34436559242505L342.8217361111111,142.040466979146L343.61347222222224,152.94131850947937L345.19694444444445,212.46907688056427L345.98868055555556,186.79996078150967L346.78041666666667,207.17660857799154L347.5721527777778,176.18498208125433L349.9473611111111,126.8394671243926L350.7390972222222,202.4683772015075L351.53083333333336,205.17770575794083L353.1143055555556,224.16440745536238L353.9060416666666,216.87724763092893L354.6977777777778,227.76487223183113L355.4895138888889,228.56667788419873L357.8647222222222,178.046210732311L359.4481944444445,149.90490495351455L364.9903472222222,172.56140395874777L366.5738194444445,232.88758993552375L368.1572916666667,182.7305555654069L372.90770833333335,236.0021639848128L375.2829166666666,204.1020005742709L376.07465277777777,161.8294097216179L376.8663888888889,135.39571404457092L377.65812500000004,185.80387240462005L378.4498611111111,209.77522728467983L379.24159722222225,150.4235627334565L380.82506944444447,182.2002773048977L381.6168055555556,146.61689448108277L383.9920138888889,195.8586508575827L384.78375,122.48654620411494L386.36722222222227,168.43761969792345L387.1589583333333,189.67062484721345L389.53416666666664,204.7325993143022L390.3259027777778,190.29787556764978L391.11763888888885,143.84764688337842L391.909375,201.1988171792279L392.7011111111111,175.2940035033971L393.49284722222217,237.2757851698746L394.28458333333333,127.0803443727394L395.07631944444444,187.53075989273688L395.8680555555556,184.38139946945012L396.65979166666665,214.9699424232046L398.24326388888886,255.3150798964004L399.82673611111113,205.63413241133094L400.6184722222222,228.28121792649227L403.78541666666666,152.94708370914063L404.5771527777778,122.73033607937396L406.160625,129.4313747783502L406.95236111111114,116.31284311165416L407.7440972222222,163.84210998564959L409.3275694444444,130.34430315283439L410.11930555555557,172.1966649989287L410.9110416666667,169.52254319563508L411.7027777777777,173.03728816099465L414.0779861111111,216.12646549691755L416.4531944444444,228.58090321409207L418.0366666666667,177.6479315223793L418.82840277777774,179.08282065577805L420.41187499999995,218.1049799285829L421.2036111111111,208.43169554695487L423.57881944444443,157.52574822865427L424.37055555555554,178.01457720187804L425.16229166666665,129.36160685432455L426.7457638888889,207.14497504755855L427.53749999999997,152.013631824404L428.32923611111113,191.55054535654682L429.12097222222224,172.21792417267957L429.9127083333334,176.59136860320965L430.70444444444445,204.93176894634962L431.4961805555555,227.22162977885455L432.28791666666666,176.7734528258443L433.87138888888893,206.56383091087145L434.663125,200.94816611583036L436.24659722222225,204.54889362926286L439.4135416666667,182.5563684652249L440.2052777777778,170.2156132788708L440.99701388888894,119.69347211718559L441.78875,171.96734817698598L443.3722222222222,169.6074597823123L444.1639583333333,177.58466446151337L445.7474305555555,184.5564573549976L446.5391666666667,194.2642278398077L447.3309027777778,202.42797576325637L448.914375,200.27387797211605L449.70611111111106,157.01327602751553L450.4978472222222,183.78012217457095L451.2895833333333,165.0720042331765L452.87305555555554,182.23787121102214L453.6647916666667,175.96356238176426L455.24826388888886,175.5114296010385L456.04,122.3841988965869L456.83173611111107,178.9932498714576L457.62347222222223,219.22652145226795L459.2069444444445,223.08354512043297L459.99868055555555,212.5529575329274L461.58215277777776,217.52850500307977L462.37388888888887,196.2604132089764L463.16562500000003,225.44919871476787L463.9573611111111,249.8268350219975L464.74909722222225,216.83669605727L465.54083333333335,184.85168362098435L468.7077777777778,157.1747766857346L469.4995138888889,119.93206730733311L471.0829861111111,181.22197997383773L471.87472222222226,204.6589879238357L473.4581944444444,84.8817552626133L474.2499305555556,155.65048191696405L475.04166666666663,179.99125998156765L475.8334027777778,122.73129694598416L476.6251388888889,194.81852776557207L477.416875,151.4131652607272L478.2086111111111,104.76523827140534L479.0003472222223,142.67008983902633L479.7920833333333,199.47430183055502L480.58381944444443,196.02830386844772L482.9590277777778,163.53650936298072L484.5425,163.73721037618816L486.1259722222222,202.8347226101905L487.70944444444444,168.17707471114895L488.50118055555555,169.48688603627184L489.29291666666666,161.2990563934048L490.0846527777778,138.0787088504682L491.668125,189.8252342902124L493.2515972222222,155.10531022399664L494.8350694444444,196.56719990136725L495.62680555555556,189.09721268403035L496.41854166666667,201.73508584251005L498.79375,208.47038544155657L500.3772222222222,187.4264908519884L501.16895833333336,204.84215312140685L501.9606944444444,218.4720009466012L502.7524305555556,140.31769320120415L503.5441666666667,129.60769380132356L504.33590277777773,143.81532273006937L505.919375,99.30275663298869L506.7111111111111,13.65145231038332L507.5028472222222,149.89496598951519L509.87805555555553,198.07065587552887L510.6697916666667,184.82171659357846L512.2532638888889,118.39286409256363L513.045,101.66273510890699L514.6284722222222,231.54597993101925L517.0036805555555,182.3973450412353L518.5871527777778,230.9464066730191L519.3788888888889,240.21118011667085L520.170625,181.92745124176145L520.9623611111111,187.16405415907502L523.3375694444444,175.73682788883647L527.29625,169.18389776969948L528.0879861111111,172.1109376810491L528.8797222222222,200.01039033134776L532.0466666666667,132.87058662002286L532.8384027777778,122.8933981458346L533.630138888889,157.03593146055937L536.0053472222222,221.5086772395298L536.7970833333333,206.34236617075902L537.5888194444444,190.30161393930513L538.3805555555556,177.87831430571774L539.9640277777778,90.30092283586657L540.7557638888889,202.64510159008205L541.5475,204.21195974697667L543.1309722222222,203.8898142023633L543.9227083333333,182.72399464808404L544.7144444444444,150.22212605675062L545.5061805555556,145.83557480511567L547.0896527777778,192.10870376229286L548.673125,131.49402509257197L549.4648611111111,152.9386460992197L551.8400694444445,175.46146453730762L553.4235416666667,226.4551960285753L554.2152777777778,237.47567545187968L555.0070138888889,151.85812156895796L557.3822222222223,215.0813579093665L558.1739583333333,203.20395061870414L558.9656944444445,169.01607641081014L559.7574305555555,178.64597165957093L560.5491666666667,155.14344461758932L561.3409027777778,169.13397774659097L562.1326388888889,165.05211129163703L562.924375,192.5609416378041L563.7161111111111,128.3459258067111L564.5078472222223,163.74732950267693L565.2995833333333,138.97845533614358L566.0913194444444,102.71694090217352L568.4665277777779,193.9939240515232L569.2582638888889,182.40443143248558L570.0500000000001,205.64782476052642L570.8417361111111,198.64756619371474L571.6334722222222,157.6515917275101L572.4252083333333,214.24442807833356L573.2169444444444,190.94236183290678L574.0086805555555,197.32891189306974L574.8004166666667,51.622618687649606L577.1756250000001,165.15075025459132L578.7590972222222,193.889985308672L579.5508333333333,166.00970494995514L581.9260416666666,151.109471357738L583.5095138888889,171.63316177266339L584.30125,206.38560516821843L585.8847222222222,171.02194551378489L587.4681944444444,201.35118960464996L589.0516666666666,158.72906850899258L591.426875,175.70390319389602L592.2186111111112,144.20420346346995L593.0103472222222,178.96616544388235L593.8020833333334,160.95939004669586L594.5938194444444,190.93709208009142L595.3855555555556,169.78182704498371L596.1772916666666,194.65292841071886L596.9690277777778,146.31689390912652L597.7607638888888,153.95839581638575L598.5525,120.28457023141289L599.3442361111112,190.24975716943544L600.1359722222222,152.61240185797215L600.9277083333334,182.13013404235244L601.7194444444444,121.49910562671721L602.5111805555555,149.1578611911585L604.0946527777777,162.20215089867511L604.8863888888889,155.95630774274468L605.678125,157.1361768723776L607.2615972222222,212.02874474289519L608.8450694444444,171.44447159208357L611.2202777777777,156.92663288364807L612.0120138888889,170.99397528730333L612.80375,112.91179569065571L615.1789583333333,157.03654701573154L615.9706944444445,171.33853604830801L617.5541666666667,188.76605901494622L618.3459027777777,126.51164646136263L619.1376388888889,146.7168396220853L622.3045833333333,168.29461572195092L623.0963194444445,140.95381692424417L624.6797916666667,146.8067256907622L625.4715277777777,174.72258814113835L627.055,181.39865932178995L627.8467361111111,179.27562454653284L629.4302083333333,159.98275921866298L631.8054166666667,208.62401900440454L632.5971527777778,203.59653969667852L633.3888888888888,186.9281313791871L634.9723611111111,144.3494144299378L635.7640972222223,134.09623203550777L637.3475694444445,60.81081556652987L638.1393055555556,132.36881907346347L638.9310416666666,145.7403138888379L639.7227777777778,84.31580482920015L640.5145138888888,161.617523620526L641.30625,145.44544794782996L642.8897222222223,177.23267199782035L643.6814583333334,66.05303354809678L645.2649305555556,112.96664015514159L646.0566666666666,86.53117288028204L646.8484027777778,168.50767287922403L647.6401388888888,126.80874941994747L650.8070833333334,90.75475214670098L651.5988194444444,172.51334561469653L652.3905555555556,54.03025014201796L655.5575,170.82860113556185L656.349236111111,159.6460655530294L657.1409722222222,200.7161618700872L657.9327083333334,206.2026201331367L658.7244444444444,181.08328488407037L661.0996527777778,201.65067971621949L661.8913888888889,214.66695415663224L663.4748611111111,144.08116749674082L665.0583333333334,193.05877563667792L666.6418055555556,142.1394812806199L668.2252777777778,99.9302926106999L669.0170138888889,148.97968048912784L670.6004861111111,115.79361481716239L671.3922222222222,132.71537663539252L672.1839583333333,123.48833972650269L672.9756944444445,147.87163613860807L673.7674305555556,178.30064520798624L674.5591666666667,174.0463632506629L676.9343749999999,179.8349089678377L677.7261111111111,187.39443694241345L678.5178472222221,198.47177264466882L679.3095833333333,148.61393562207618L680.8930555555556,161.89132556381324L681.6847916666667,163.2950766136249L683.2682638888889,201.40585390664637L684.06,179.8077494725585L684.8517361111111,166.09829985412458L686.4352083333333,211.29486785580713L687.2269444444445,131.06708503328264L688.0186805555555,172.44252674281597L688.8104166666667,176.79046316755316L689.6021527777777,108.86576655755437L690.3938888888889,144.94597747301063L694.3525694444445,166.68457862176L695.9360416666667,139.3034834805876L696.7277777777778,165.8221257713934L699.1029861111111,140.05578198221824L700.6864583333333,153.89759097620845L701.4781944444444,197.58137959490222L703.0616666666667,168.89996168638268L704.6451388888889,130.65918214370808L705.436875,147.2090885837873L706.2286111111111,142.32371243958673L708.6038194444444,163.81916929533085L709.3955555555556,147.63472246502837L710.1872916666667,130.4894390515983L710.9790277777778,133.97918647155166L711.770763888889,142.76087672015032L713.354236111111,119.61028208769858L716.5211805555556,171.59035816788673L717.3129166666666,175.4098029434681L718.896388888889,190.86306031048298L719.688125,114.11245857427514L720.4798611111111,126.67045969578126L721.2715972222221,182.072752289474L723.6468055555556,143.44187591659525L724.4385416666667,142.60587692509094L726.81375,127.97072240896523L728.3972222222221,153.1526791366438L729.9806944444445,113.33562794700265L730.7724305555555,162.3139717504382L731.5641666666667,198.03318207773071L732.3559027777777,131.83044851447144L733.147638888889,205.27949756445986L733.939375,148.21616687253118L734.7311111111111,101.7579509845624L735.5228472222221,167.35193050963184L736.3145833333334,140.643847361207L737.8980555555555,159.3344745275875L739.4815277777777,119.49320649666095L740.273263888889,159.63657699525356L741.8567361111111,174.60177417844534L742.6484722222222,188.73499599906305L743.4402083333332,200.51298362265032L745.0236805555555,196.2352655281623L745.8154166666667,172.07829824338356L746.6071527777777,146.30251093705496L747.3988888888889,132.265525912866L748.1906250000001,107.1222140391668L748.9823611111111,192.73233621940017L749.7740972222222,151.68195268139243L750.5658333333332,132.47446935996413L752.9410416666667,190.06789814991254L753.7327777777778,168.49792909125486L756.1079861111111,174.83094086498022L757.6914583333332,116.4699598159641L759.2749305555556,188.45778598201773L760.8584027777778,151.66075356180468L762.4418750000001,170.66064465480545L764.0253472222222,159.9541434099277L765.6088194444445,205.95527204871178L766.4005555555556,201.90097045463818L767.1922916666666,143.06038184526065L768.7757638888888,205.13957136434811L769.5675,170.1650626870493L770.3592361111112,110.98955200985074L772.7344444444445,126.39701807747284L774.3179166666666,143.3238244454066L775.1096527777778,174.55316033338508L775.9013888888888,167.53062167204916L777.4848611111112,207.83745960270363L778.2765972222222,138.87992146797478L779.8600694444445,137.81546142635247L780.6518055555556,217.5826888717711L783.81875,200.15783831539255L784.6104861111112,62.4957251946131L786.9856944444443,141.02308940142393L790.944375,162.13834335034093L791.7361111111112,170.47165420340994L794.1113194444443,77.37969912216067L794.9030555555556,170.93937103947005L795.6947916666667,95.93547466521466L798.07,127.14925652494034L799.6534722222223,155.3358581562837L800.4452083333333,189.17155973799527L801.2369444444444,146.79768753920993L802.0286805555556,176.9718567673117L803.6121527777777,175.74031103029847L804.4038888888889,146.95505947371325L805.195625,196.87742469459772L806.7790972222223,152.74476123352846L807.5708333333333,171.13310576975346L808.3625694444444,185.06889952905476L809.1543055555557,162.77970679911473L809.9460416666667,113.02213020188117L810.7377777777778,173.38965596320728L812.32125,126.09374455362558L813.1129861111111,233.51006634999067L813.9047222222223,195.98763218646246L814.6964583333333,192.08112388787168L815.4881944444444,175.91116512442628L817.0716666666667,195.2496566027403L817.8634027777778,102.01544822255767L818.6551388888888,181.63198475912213L820.2386111111111,140.58241195231676L821.0303472222223,146.96277643367648L824.9890277777778,139.86910361610353L826.5725,155.61526015028358L828.9477083333334,179.44081853578487L829.7394444444444,211.50532767052454L830.5311805555555,204.26696936041117L831.3229166666667,234.38852363483358L832.1146527777778,201.21668329276145L834.4898611111112,228.65311834526557L835.2815972222222,171.73532891770205L836.0733333333334,229.4492338656758L836.8650694444444,199.10295691279072L838.4485416666668,103.11556542354322L839.2402777777778,174.204726078858L840.0320138888889,181.8537948106726L841.6154861111111,178.39090661518276L842.4072222222222,151.2162026191751L843.9906944444444,165.8068720139563L844.7824305555555,147.43372118100524L845.5741666666668,133.90878797881305L846.3659027777778,183.3417568107446L847.1576388888889,173.2898459440718L847.9493749999999,153.27394350556037L848.7411111111111,136.20608492195606L850.3245833333333,161.77812346629798L851.1163194444445,166.77227271348238L852.6997916666668,194.33408584507805L853.4915277777778,150.22837168971697L854.2832638888889,187.85722933709621L855.8667361111111,141.99898456595838L858.2419444444445,177.07974407138923L859.0336805555555,179.048754931738L860.6171527777778,146.02669717930257L862.200625,90.44904642924666L862.992361111111,195.35790423179668L863.7840972222223,114.16954005633795L864.5758333333333,118.92631021017826L867.7427777777779,73.56280664851272L868.5345138888889,97.86855812246597L870.117986111111,173.46346252970397L870.9097222222223,177.34057431543866L871.7014583333333,163.41189697446922L872.4931944444445,161.93726699861386L873.2849305555555,209.89455490683514L874.8684027777779,185.26189859583974L878.0353472222223,100.10107163712382L878.8270833333333,160.73694942643246L879.6188194444444,166.0768455043435L881.9940277777779,207.47681933951873L882.7857638888889,190.0558572902034L885.1609722222222,140.0077086246262L886.7444444444444,143.25326080371937L887.5361805555556,140.19929641857743L888.3279166666666,170.48779375975332L889.1196527777779,156.3481611572206L889.911388888889,174.88500462534526L890.703125,127.69624485634267L892.2865972222221,93.65269581601024L893.0783333333334,175.79327880218625L894.6618055555556,119.89815171870089L895.4535416666666,188.64377372525632L896.2452777777778,156.51183877885342L897.037013888889,151.70426280299822L898.6204861111111,168.46194163399437L900.2039583333334,204.075516688327L903.3709027777777,173.7950966320932L904.954375,117.19747096175945L907.3295833333334,68.05487902214134L908.1213194444445,112.7740464539578L908.9130555555555,42.25612099841237L910.4965277777777,135.14142970430353L911.288263888889,135.87978062654534L912.08,139.02172436068454L914.4552083333334,192.23334617788595L915.2469444444445,165.274026437973L916.0386805555555,162.99684763948122L917.6221527777777,179.2522935041537L918.413888888889,175.039839271456L919.9973611111111,198.22786266108352L920.7890972222222,205.70763870701194L921.5808333333332,191.19256249008077L923.1643055555555,182.568694582209L924.7477777777777,199.04806740768254L927.1229861111111,148.38577484277388L929.4981944444445,156.28789680451155L930.2899305555555,147.29128771958253L931.8734027777778,70.28438982864225L932.6651388888889,139.68883603190383L933.4568750000001,119.82042661805951L934.2486111111111,97.41762642500305L935.0403472222222,158.2090745239208L936.6238194444445,143.1362752939264L937.4155555555556,154.39306784917912L938.2072916666666,118.85495085082948L940.5825000000001,120.0983722986033L942.1659722222222,13.194139858086942L942.9577083333332,155.32695512659848L943.7494444444445,128.58656283840537L945.3329166666666,140.28655511761704L946.1246527777778,178.2031022335092L946.9163888888888,169.04538284242153L953.2502777777778,122.99091109323004L954.0420138888888,135.24835614177087L954.83375,127.07990898005664L955.6254861111112,148.0816305335611L957.2089583333333,112.47147856652737L958.7924305555556,93.88348396494985L959.5841666666666,163.5201446035256L960.3759027777777,177.0686190376679L968.2932638888889,135.4157120808959L969.085,179.32970332043865L970.6684722222222,120.03515027835965L971.4602083333333,149.2568754926324L973.0436805555556,126.78891653257111L975.4188888888889,172.86364154828092L976.210625,128.08937442178527L977.0023611111111,165.74235882920524L977.7940972222223,133.41314595689377L978.5858333333333,72.27794782817364L979.3775694444444,127.8707772679627L980.1693055555556,122.52924471410611L982.5445138888889,164.7373674226304L983.33625,145.35379028134048L984.9197222222223,109.14600930983818L985.7114583333333,96.02561596408486L986.5031944444444,103.88439383357763L987.2949305555557,107.16893617808819L989.6701388888888,70.10434744755423L991.2536111111111,139.54017195105553L992.0453472222223,150.95420131894448L992.8370833333333,177.4797047978888L993.6288194444444,168.729167646418L994.4205555555557,186.9302633019785L995.2122916666667,197.7098504633953L996.0040277777778,187.50418592554828L996.7957638888888,199.44119697312516L998.3792361111111,183.04726620825627L999.9627083333334,218.3889910796036L1000.7544444444444,136.50456912629306L1001.5461805555555,189.59830462125439L1002.3379166666667,148.99275728315115L1004.713125,157.7425437575827L1005.5048611111112,117.92729419283569L1006.2965972222222,163.79968171939254L1007.0883333333334,135.72008159322044L1007.8800694444444,77.16515562434995L1008.6718055555555,148.52754770840207L1010.2552777777778,69.78864271193743L1011.0470138888888,94.35466892893112L1012.6304861111112,38.71748948966467L1015.0056944444444,131.72753069239357L1016.5891666666668,172.7274086792022L1017.3809027777778,211.52811822543543L1018.1726388888889,212.47210961580276L1018.9643749999999,201.03551489611465L1019.7561111111111,172.10631351048747L1020.5478472222222,181.067145327727L1022.1313194444444,148.19858601627251L1022.9230555555555,100.72811216798925L1026.881736111111,68.43397092695034L1027.6734722222222,62.584365139404895L1028.4652083333333,107.69804338241613L1029.2569444444443,72.26440561438596L1031.6321527777777,153.7864157066991L1032.423888888889,136.10747598608336L1034.7990972222224,163.18322573478022L1036.3825694444445,175.54923369673392L1037.1743055555555,154.6393950128307L1038.7577777777778,183.80761196774742L1039.549513888889,186.62235059402883L1041.132986111111,170.3331242625912L1041.9247222222223,174.35205395457646L1042.7164583333333,188.50518373027444L1043.5081944444444,175.71627435150245L1044.2999305555554,92.22541854778922L1045.0916666666667,137.8682640492916L1045.8834027777777,167.27762849628925L1046.6751388888888,161.06877870485187L1048.2586111111111,95.53228602744639L1049.0503472222224,106.30366078205407L1052.2172916666666,100.0392909167955L1053.0090277777779,85.96579296141863L1054.5925,160.64668801923594L1056.1759722222223,173.4363781021287L1056.9677083333333,99.87580847119295L1057.7594444444444,147.38467194326222L1058.5511805555554,172.93262876818577L1060.1346527777778,159.1791294210901L1060.9263888888888,141.83715360984206L1062.5098611111111,184.03904569894075L1064.0933333333335,137.07804134363928L1064.8850694444445,149.60332795977592L1065.6768055555556,141.05840124934912L1066.4685416666666,136.1437937412411L1068.052013888889,140.05711818734804L1070.427222222222,116.93857746447122L1071.2189583333334,125.02327909568945L1072.0106944444444,147.82958321087062L1072.8024305555555,151.16670297520855L1073.5941666666665,136.6465972221146L1074.3859027777778,153.9311912804842L1075.1776388888889,93.58753704900539L1075.969375,85.6751308118304L1076.7611111111112,123.55394889973104L1077.5528472222222,136.9425591515998L1079.1363194444446,185.14040902381143L1080.7197916666667,168.55480038374662L1081.5115277777777,170.36836104281247L1082.303263888889,113.37569908735657L1083.095,138.08938347796598L1083.886736111111,174.62216256683072L1084.6784722222221,172.17303368573388L1085.4702083333334,160.4574273241063L1086.2619444444445,136.59445519496998L1087.0536805555555,102.49723274633288L1087.8454166666666,138.68632185955843L1089.4288888888889,127.95133992781243L1090.220625,152.29093192269406L1091.0123611111112,168.29032184928656L1094.1793055555556,163.7581392520418L1095.7627777777777,89.24559102704131L1096.554513888889,165.623301450784L1097.34625,179.0051856363813L1098.137986111111,144.26488819532096L1098.9297222222222,144.01501783604422L1099.7214583333332,166.12152580171824L1101.3049305555555,156.88292846642435L1102.8884027777776,125.33399933576584L1103.680138888889,82.71911476676667L1104.471875,128.25773626814285L1105.263611111111,108.41061605513096L1106.0553472222223,136.05161060082415L1107.6388194444446,119.50719911667204L1109.2222916666667,125.38636656602225L1110.0140277777778,179.9494172434012L1110.805763888889,83.48069163660205L1111.5975,182.65272536997995L1112.3892361111111,214.87369061323506L1113.1809722222222,195.3468242386977L1114.7644444444445,140.16554597889385L1115.5561805555556,145.8012838779638L1116.3479166666666,160.6840417087078L1117.1396527777777,116.4317953952899L1118.723125,111.08470783134305L1119.514861111111,155.22159009737274L1121.0983333333334,113.62316728010774L1121.8900694444444,78.18430479988456L1122.6818055555557,147.4068169159194L1125.0570138888888,121.31259240955114L1125.84875,91.7080819594363L1126.6404861111112,94.96734150126576L1127.4322222222222,117.09387753034628L1128.2239583333333,117.9104039594531L1129.8074305555556,168.76812778475383L1132.1826388888887,166.95507758607468L1133.766111111111,140.07042018448314L1135.3495833333334,118.43455669532216L1138.5165277777778,122.83603140649697L1140.1000000000001,144.38465121015906L1141.6834722222222,106.90574880813563L1142.4752083333333,134.67510912753642L1143.2669444444443,81.65918881446123L1146.4338888888888,122.77687805580595L1147.225625,68.21432282527292L1148.017361111111,121.2263696448257L1148.8090972222221,91.78942532340682L1151.9760416666668,160.18179372884333L1152.7677777777778,174.88069573914012L1154.3512500000002,152.7842768728733L1155.1429861111112,107.29871322462952L1156.7264583333333,125.86920203765234L1157.5181944444444,72.91542276988423L1158.3099305555556,136.859564298143L1159.1016666666667,93.18355269357562L1159.8934027777777,147.3770300510029L1160.6851388888888,156.5454240695884L1161.4768749999998,150.8179684498658L1162.268611111111,140.07378321761885L1163.8520833333332,156.29456281661987L1166.2272916666666,133.703252605473L1167.0190277777779,147.1108399728934L1168.6025,165.28686301534376L1169.3942361111112,199.5798019816478L1170.1859722222223,163.24336997916302L1171.7694444444444,172.74492948129773L1172.5611805555557,137.00693721448383L1173.3529166666667,136.80005062247315L1174.1446527777778,124.42320288407305L1175.7281249999999,116.06510467516875L1176.5198611111111,99.82108411503339L1178.1033333333332,78.71185059597099L1178.8950694444443,122.66393118848404L1180.4785416666666,150.9289035027226L1182.85375,156.91753467793265L1183.6454861111113,135.0366502031684L1184.4372222222223,176.67455863269666L1185.2289583333334,142.6389967960616L1186.8124305555555,139.6036041608701L1189.1876388888888,167.35344687725106L1189.979375,196.4277090939383L1191.5628472222222,140.96458163298666L1193.1463194444443,174.82817837347588L1193.9380555555556,89.69041221340501L1195.5215277777777,152.2642979013423L1196.313263888889,189.46565998842317L1197.105,180.9859971397867L1197.896736111111,174.6582551188767L1198.6884722222223,157.34905386716127L1199.4802083333334,117.58791310340166L1201.0636805555555,138.13277261083326L1201.8554166666668,132.15247395075858L1205.022361111111,96.70326714093483L1205.8140972222222,136.3842055698236L1206.6058333333333,135.90031915033856L1208.1893055555554,123.2736310797433L1209.7727777777777,129.58955744405588L1210.564513888889,126.57066469018659L1211.35625,136.1914917603135L1212.147986111111,111.55892553056276L1212.9397222222224,154.06778447454175L1213.7314583333334,119.57342384507263L1215.3149305555555,147.9077737312764L1216.1066666666668,117.09212094607449L1216.8984027777778,160.89625810769698L1217.690138888889,159.8957407362759L1219.273611111111,128.00336184663078L1221.6488194444444,156.51364040374756L1222.4405555555554,156.71663848869503L1223.2322916666667,67.34383773058653L1224.8157638888888,146.3283642542859L1226.3992361111111,131.66716124489903L1227.1909722222224,111.53136066968239L1227.9827083333334,177.33543968449035L1228.7744444444445,108.16949859013164L1230.3579166666666,135.33253706494966L1231.1496527777779,150.97170710749924L1231.941388888889,113.35994988307357L1235.1083333333333,147.21554440632463L1236.6918055555554,132.52152179678282L1239.0670138888888,158.01613551129898L1239.85875,126.51110597389439L1241.4422222222222,130.23839763614038L1242.2339583333335,159.31635318386057L1243.8174305555556,97.73660411251092L1244.6091666666666,114.95627962052822L1245.400902777778,152.19007095570365L1246.192638888889,99.15978268409765L1247.776111111111,156.62690255542597L1248.567847222222,160.73848080759248L1249.3595833333334,158.66910442709923L1251.7347916666665,61.662143383175135L1253.3182638888889,127.78802263115844L1254.11,145.26479001156986L1254.9017361111112,180.51180946764848L1259.6521527777777,147.9095002884666L1260.443888888889,141.4662891253829L1261.235625,162.13163229761025L1262.8190972222221,157.25760639024278L1264.4025694444445,176.43973184128603L1265.1943055555555,152.53849019668996L1267.5695138888889,160.13146834013364L1268.36125,169.2513686219851L1269.1529861111112,136.00352222969136L1269.9447222222223,186.9169763183842L1270.7364583333333,181.00414851059517L1271.5281944444446,146.84077640126148L1273.9034027777777,107.78929568330443L1274.695138888889,130.77796927839518L1276.278611111111,119.97329449032748L1277.0703472222222,107.56410758507752L1277.8620833333332,69.57253780588508L1278.6538194444445,-20.190930296977342L1280.2372916666666,35.56449578950799L1281.0290277777776,126.37187039665878L1281.820763888889,184.55572169149914L1282.6125,156.15232453122735L1284.9877083333333,122.36394563006857L1285.7794444444446,180.41901077205935L1287.3629166666667,172.91880129712322L1288.1546527777778,176.5070525581638L1288.946388888889,145.35682301657894L1289.738125,165.27980665117502L1290.5298611111111,162.97338147523502L1291.3215972222222,147.64973600581288L1292.1133333333332,164.80134011991322L1292.9050694444445,158.75618296364942L1294.4885416666666,124.34116889722645L1295.2802777777777,146.27312943773964L1296.86375,141.18771287612617L1298.4472222222223,104.99288859032094L1300.8224305555557,82.13331643243635L1301.6141666666667,183.39949888860187L1302.4059027777778,131.45062094616392L1303.1976388888888,153.0869348415484L1303.989375,115.096686253945L1304.7811111111112,94.51818140161538L1306.3645833333333,177.84511936704317L1310.3232638888887,157.0539176824192L1311.906736111111,163.90256951438883L1313.4902083333334,135.9553738043954L1315.0736805555557,128.51599919671813L1316.6571527777778,130.2951938609282L1318.2406250000001,92.96858881662286L1319.0323611111112,66.8809702681998L1320.6158333333333,90.75213979060447L1322.9910416666667,130.8728698696941L1323.7827777777777,139.34475570420423L1324.5745138888888,138.8070607545475L1325.36625,158.70234440639615L1329.3249305555555,159.2369165395697L1330.1166666666668,175.0906450934708L1330.9084027777778,160.8438758638998L1331.700138888889,163.27078470463553L1334.8670833333333,154.82428676759204L1335.6588194444444,163.18843543343246L1338.0340277777777,87.82095614199841L1338.8257638888888,150.26137145236135L1340.409236111111,110.61211159452796L1343.5761805555555,142.34922044537961L1344.3679166666666,112.0163430776447L1345.1596527777779,127.74021951730052L1345.951388888889,126.90834924951196L1346.743125,85.32852820927894L1347.5348611111112,122.75064940005541L1349.9100694444444,184.1194882504642L1351.4935416666667,168.33446165919304L1352.2852777777778,155.85211376970014L1354.6604861111111,196.8605044341336L1355.4522222222222,204.062695124497L1356.2439583333332,167.0987421578417L1357.0356944444443,126.62633489941558L1357.8274305555556,137.72443432857594L1359.410902777778,185.16028695181012L1360.202638888889,147.1390354024867L1360.994375,127.39426249700287L1362.5778472222223,87.18696434174979L1364.1613194444444,86.79249857117736L1364.9530555555555,120.21851065196097L1365.7447916666667,124.72258790085712L1368.12,136.5340256933123L1368.9117361111112,98.86547224409878L1370.4952083333333,138.37849923285344L1371.2869444444443,138.0164476968348L1372.0786805555556,122.81540280145904L1375.245625,170.53304457167783L1376.037361111111,164.07198230860135L1377.6208333333334,171.41672656871378L1379.2043055555555,201.8999945744872L1379.9960416666668,175.20024394119778L1380.7877777777778,180.0328174624592L1381.5795138888889,177.13197617977858L1382.37125,185.90686529440185L1383.162986111111,92.48172971606255L1383.9547222222222,44.79097719738877L1385.5381944444443,125.92804010398686L1386.3299305555554,110.16359707713127L1387.1216666666667,132.6685494016856L1387.9134027777777,111.45437123253942L1388.705138888889,116.80618806183338L1389.496875,50.64436639721191L1391.0803472222224,131.06337668870887L1391.8720833333334,113.96409476424253L1392.6638194444445,139.0515562662234L1393.4555555555555,143.83252824780843" style="fill: none;" fill="none"></path></g></g></g></g></g></g><g transform="translate(48, 377)" clip-path="url(#clip_1)"><clipPath id="clip_1"><rect width="1425" height="22"></rect></clipPath><g><g><line x1="0" y1="0" x2="0" y2="5" style="visibility: inherit;" fill="rgb(0, 0, 0)" stroke="rgb(204, 204, 204)" stroke-width="1px"></line><line x1="158.3472222222222" y1="0" x2="158.3472222222222" y2="5" style="visibility: inherit;" fill="rgb(0, 0, 0)" stroke="rgb(204, 204, 204)" stroke-width="1px"></line><line x1="316.6944444444444" y1="0" x2="316.6944444444444" y2="5" style="visibility: inherit;" fill="rgb(0, 0, 0)" stroke="rgb(204, 204, 204)" stroke-width="1px"></line><line x1="475.04166666666663" y1="0" x2="475.04166666666663" y2="5" style="visibility: inherit;" fill="rgb(0, 0, 0)" stroke="rgb(204, 204, 204)" stroke-width="1px"></line><line x1="633.3888888888888" y1="0" x2="633.3888888888888" y2="5" style="visibility: inherit;" fill="rgb(0, 0, 0)" stroke="rgb(204, 204, 204)" stroke-width="1px"></line><line x1="791.7361111111112" y1="0" x2="791.7361111111112" y2="5" style="visibility: inherit;" fill="rgb(0, 0, 0)" stroke="rgb(204, 204, 204)" stroke-width="1px"></line><line x1="950.0833333333333" y1="0" x2="950.0833333333333" y2="5" style="visibility: inherit;" fill="rgb(0, 0, 0)" stroke="rgb(204, 204, 204)" stroke-width="1px"></line><line x1="1108.4305555555557" y1="0" x2="1108.4305555555557" y2="5" style="visibility: inherit;" fill="rgb(0, 0, 0)" stroke="rgb(204, 204, 204)" stroke-width="1px"></line><line x1="1266.7777777777776" y1="0" x2="1266.7777777777776" y2="5" style="visibility: inherit;" fill="rgb(0, 0, 0)" stroke="rgb(204, 204, 204)" stroke-width="1px"></line><line x1="1425.125" y1="0" x2="1425.125" y2="5" style="visibility: inherit;" fill="rgb(0, 0, 0)" stroke="rgb(204, 204, 204)" stroke-width="1px"></line></g><g transform="translate(0, 8)"><text x="0" y="0" dx="0em" dy="0.95em" style="text-anchor: middle; visibility: hidden; font-family: &quot;Helvetica Neue&quot;, sans-serif; font-size: 12px; font-weight: 200;" fill="rgb(50, 49, 63)" stroke="none" stroke-width="1px">-200</text><text x="158.3472222222222" y="0" dx="0em" dy="0.95em" style="text-anchor: middle; visibility: inherit; font-family: &quot;Helvetica Neue&quot;, sans-serif; font-size: 12px; font-weight: 200;" fill="rgb(50, 49, 63)" stroke="none" stroke-width="1px">0</text><text x="316.6944444444444" y="0" dx="0em" dy="0.95em" style="text-anchor: middle; visibility: inherit; font-family: &quot;Helvetica Neue&quot;, sans-serif; font-size: 12px; font-weight: 200;" fill="rgb(50, 49, 63)" stroke="none" stroke-width="1px">200</text><text x="475.04166666666663" y="0" dx="0em" dy="0.95em" style="text-anchor: middle; visibility: inherit; font-family: &quot;Helvetica Neue&quot;, sans-serif; font-size: 12px; font-weight: 200;" fill="rgb(50, 49, 63)" stroke="none" stroke-width="1px">400</text><text x="633.3888888888888" y="0" dx="0em" dy="0.95em" style="text-anchor: middle; visibility: inherit; font-family: &quot;Helvetica Neue&quot;, sans-serif; font-size: 12px; font-weight: 200;" fill="rgb(50, 49, 63)" stroke="none" stroke-width="1px">600</text><text x="791.7361111111112" y="0" dx="0em" dy="0.95em" style="text-anchor: middle; visibility: inherit; font-family: &quot;Helvetica Neue&quot;, sans-serif; font-size: 12px; font-weight: 200;" fill="rgb(50, 49, 63)" stroke="none" stroke-width="1px">800</text><text x="950.0833333333333" y="0" dx="0em" dy="0.95em" style="text-anchor: middle; visibility: inherit; font-family: &quot;Helvetica Neue&quot;, sans-serif; font-size: 12px; font-weight: 200;" fill="rgb(50, 49, 63)" stroke="none" stroke-width="1px">1k</text><text x="1108.4305555555557" y="0" dx="0em" dy="0.95em" style="text-anchor: middle; visibility: inherit; font-family: &quot;Helvetica Neue&quot;, sans-serif; font-size: 12px; font-weight: 200;" fill="rgb(50, 49, 63)" stroke="none" stroke-width="1px">1.2k</text><text x="1266.7777777777776" y="0" dx="0em" dy="0.95em" style="text-anchor: middle; visibility: inherit; font-family: &quot;Helvetica Neue&quot;, sans-serif; font-size: 12px; font-weight: 200;" fill="rgb(50, 49, 63)" stroke="none" stroke-width="1px">1.4k</text><text x="1425.125" y="0" dx="0em" dy="0.95em" style="text-anchor: middle; visibility: hidden; font-family: &quot;Helvetica Neue&quot;, sans-serif; font-size: 12px; font-weight: 200;" fill="rgb(50, 49, 63)" stroke="none" stroke-width="1px">1.6k</text></g><line x1="0" y1="0" x2="1425.125" y2="0" fill="rgb(0, 0, 0)" stroke="rgb(204, 204, 204)" stroke-width="1px"></line></g></g></g></g></svg>